<svg xmlns="http://www.w3.org/2000/svg" width="500px" height="500px" viewBox="0 0 5000 5000" preserveAspectRatio="xMidYMid meet"><g fill="#ae85bb"><path d="M0 2500 c0 -2500 0 -2500 2500 -2500 2500 0 2500 0 2500 2500 0 2500 0 2500 -2500 2500 -2500 0 -2500 0 -2500 -2500z m4435 1887 c17 -10 39 -31 50 -45 20 -27 20 -45 23 -1857 2 -1727 1 -1832 -15 -1865 -10 -19 -33 -45 -52 -57 -34 -23 -34 -23 -1943 -23 -2071 0 -1945 -3 -1998 55 -25 27 -25 27 -30 1853 -3 1005 -3 1838 -1 1851 5 30 72 98 103 104 13 2 880 4 1928 3 1829 -1 1906 -2 1935 -19z"/><path d="M550 4333 c-32 -29 -32 -29 -31 -1858 1 -2015 -4 -1868 63 -1880 18 -3 887 -4 1931 -3 1899 3 1899 3 1923 31 24 28 24 28 22 1857 -3 1829 -3 1829 -26 1852 -22 23 -22 23 -1936 27 -1913 3 -1913 3 -1946 -26z m2886 -815 c349 -352 349 -352 349 -523 0 -96 -3 -116 -24 -160 -31 -62 -110 -140 -182 -180 -50 -28 -62 -30 -154 -30 -112 0 -157 16 -233 81 -44 37 -72 43 -93 18 -23 -27 -92 -71 -139 -87 -26 -9 -45 -21 -45 -30 0 -8 37 -42 82 -75 104 -77 188 -182 257 -321 112 -223 166 -479 151 -708 -8 -115 -20 -142 -88 -197 -37 -29 -44 -31 -141 -34 -100 -4 -102 -4 -118 -33 -9 -16 -32 -38 -50 -49 -74 -47 -175 9 -185 104 -5 44 -4 48 41 92 43 44 48 46 90 42 49 -6 86 -30 111 -71 17 -29 17 -29 121 -25 102 3 104 4 136 36 33 32 33 32 32 180 -3 259 -52 488 -141 650 -43 78 -138 206 -190 253 -88 81 -243 169 -299 169 -55 0 -241 -114 -324 -199 -68 -70 -172 -236 -213 -339 -51 -131 -78 -285 -84 -481 -5 -155 -4 -178 12 -207 29 -54 53 -63 161 -66 72 -1 99 2 102 11 2 7 18 28 34 47 31 35 79 51 122 40 38 -9 83 -53 96 -91 25 -76 -65 -176 -145 -161 -34 7 -98 58 -107 86 -3 11 -29 16 -104 20 -88 4 -106 8 -142 33 -71 47 -82 81 -82 264 0 91 6 196 15 249 14 87 54 222 80 274 7 14 22 49 33 77 32 83 137 227 224 307 44 41 115 94 163 121 47 26 85 52 85 57 0 6 -24 34 -54 62 -147 142 -164 364 -37 508 17 20 31 45 31 55 0 32 -94 111 -174 148 -105 49 -181 61 -290 45 -231 -33 -399 -202 -426 -430 -6 -50 -9 -272 -8 -534 3 -449 3 -449 45 -461 198 -59 297 -257 217 -434 -113 -253 -462 -251 -580 3 -77 166 30 383 213 430 48 12 48 12 54 522 3 300 10 524 16 545 98 343 461 513 777 363 56 -26 186 -127 186 -144 0 -35 62 18 270 230 129 132 240 240 246 240 6 0 141 -132 300 -292z"/><path d="M2886 3534 c-229 -233 -229 -233 -196 -305 56 -123 60 -145 60 -359 0 -198 0 -198 30 -210 45 -19 157 -8 213 20 25 13 68 42 95 66 49 43 49 43 98 1 73 -63 95 -75 166 -88 162 -30 323 49 386 191 22 49 24 65 20 155 -7 158 -6 156 -326 480 -165 166 -285 281 -297 281 -14 1 -91 -71 -249 -232z m550 -268 c15 -11 20 -30 24 -93 5 -78 5 -78 75 -81 38 -2 75 -8 82 -14 15 -12 17 -86 3 -108 -6 -10 -32 -16 -84 -18 -76 -4 -76 -4 -76 -69 0 -89 -9 -103 -69 -103 -28 0 -53 6 -59 13 -6 7 -12 46 -14 87 -3 75 -3 75 -73 78 -78 3 -105 21 -105 71 0 49 18 60 100 63 75 3 75 3 78 78 2 62 6 78 23 93 26 21 68 22 95 3z"/><path d="M3350 3160 c0 -56 -4 -82 -12 -85 -11 -4 -93 -11 -156 -14 -9 -1 -12 -13 -10 -38 3 -38 3 -38 83 -41 48 -2 82 -8 87 -15 4 -7 8 -45 8 -84 0 -73 0 -73 35 -73 35 0 35 0 35 78 0 47 5 83 12 90 7 7 43 12 90 12 78 0 78 0 78 35 0 34 0 34 -82 37 -83 3 -83 3 -92 91 -9 87 -9 87 -43 87 -33 0 -33 0 -33 -80z"/><path d="M2583 3218 c-48 -52 -68 -109 -71 -205 -5 -109 9 -160 63 -233 34 -46 89 -90 114 -90 17 0 15 312 -4 400 -17 79 -49 150 -68 150 -8 0 -23 -10 -34 -22z"/><path d="M1555 1991 c-92 -41 -155 -142 -155 -246 1 -151 117 -265 270 -265 102 0 197 64 237 158 25 60 21 178 -9 238 -28 55 -90 108 -146 124 -58 16 -152 12 -197 -9z"/><path d="M2445 1355 c-30 -29 -33 -74 -6 -106 27 -33 95 -33 122 0 25 31 25 85 -1 111 -29 29 -84 27 -115 -5z"/><path d="M2903 1365 c-49 -34 -32 -127 25 -140 58 -12 102 23 102 83 0 58 -76 93 -127 57z"/></g><g fill="#fbf9fb"><path d="M562 4413 c-31 -6 -98 -74 -103 -104 -2 -13 -2 -851 1 -1861 5 -1836 5 -1836 30 -1863 53 -58 -74 -55 2008 -55 1919 0 1919 0 1953 23 19 12 42 38 52 57 16 33 17 138 15 1875 -3 1822 -3 1840 -23 1867 -11 14 -33 35 -50 45 -29 17 -106 18 -1945 19 -1053 1 -1925 -1 -1938 -3z m3860 -91 c23 -23 23 -23 26 -1842 2 -1819 2 -1819 -22 -1847 -24 -28 -24 -28 -1913 -31 -1038 -1 -1903 0 -1921 3 -67 12 -62 -135 -63 1870 -1 1820 -1 1820 32 1848 32 29 32 29 1935 25 1904 -3 1904 -3 1926 -26z"/><path d="M2878 3578 c-238 -241 -238 -241 -257 -216 -29 36 -121 105 -179 133 -235 113 -532 47 -686 -154 -48 -61 -90 -144 -109 -210 -6 -21 -13 -245 -16 -545 -6 -510 -6 -510 -54 -522 -92 -23 -162 -84 -208 -179 -39 -81 -41 -193 -5 -271 95 -205 357 -259 524 -109 128 115 142 323 30 449 -45 52 -107 92 -171 111 -42 12 -42 12 -45 451 -1 255 2 474 8 524 27 227 195 397 423 430 103 14 167 4 274 -45 67 -31 173 -115 173 -138 0 -5 -14 -25 -31 -45 -71 -80 -102 -206 -79 -317 17 -85 54 -151 116 -211 54 -52 54 -52 -31 -99 -48 -27 -119 -80 -163 -121 -87 -80 -192 -224 -224 -307 -11 -28 -26 -63 -33 -77 -26 -52 -66 -187 -80 -274 -9 -54 -15 -159 -15 -259 0 -198 10 -228 87 -278 41 -25 56 -29 122 -29 93 0 119 -7 126 -31 10 -30 70 -70 114 -76 84 -11 172 80 157 162 -14 74 -82 121 -163 112 -37 -4 -54 -12 -79 -39 -17 -19 -33 -40 -35 -47 -6 -17 -172 -16 -200 2 -11 6 -29 27 -41 45 -19 32 -20 44 -15 200 6 189 34 345 84 474 41 103 145 269 213 339 75 76 268 199 314 199 47 0 209 -95 289 -169 52 -47 147 -175 190 -253 88 -160 138 -389 141 -640 1 -138 1 -138 -32 -170 -31 -32 -35 -33 -126 -36 -94 -4 -94 -4 -111 25 -27 45 -64 66 -122 71 -52 4 -54 4 -99 -42 -46 -45 -46 -46 -42 -102 4 -47 10 -61 40 -91 65 -65 171 -52 216 26 16 29 18 29 118 33 97 3 104 5 141 34 68 55 80 82 88 198 16 239 -38 501 -151 727 -69 139 -153 244 -257 321 -45 33 -80 63 -77 67 2 3 23 13 47 21 36 13 70 34 149 94 8 7 25 -2 54 -27 80 -68 121 -82 245 -82 103 0 113 2 164 30 72 40 151 118 182 180 21 45 24 63 24 170 0 183 3 177 -349 533 -195 197 -296 292 -310 292 -14 0 -100 -81 -258 -242z m544 -103 c316 -320 318 -323 326 -470 4 -80 1 -96 -20 -145 -62 -139 -220 -220 -372 -190 -66 13 -89 25 -161 87 -27 24 -54 43 -58 43 -5 0 -31 -20 -59 -44 -27 -24 -70 -53 -94 -66 -56 -27 -152 -37 -194 -20 -30 12 -30 12 -30 212 0 213 -7 255 -65 367 -23 46 -23 46 203 277 125 127 232 231 237 230 6 0 135 -127 287 -281z m-782 -285 c35 -68 50 -170 50 -336 0 -155 0 -155 -31 -137 -43 24 -113 121 -128 176 -20 69 -11 192 17 247 21 39 59 90 69 90 1 0 12 -18 23 -40z m-898 -1200 c102 -29 170 -125 170 -239 0 -82 -17 -125 -72 -185 -120 -130 -332 -87 -409 84 -70 154 55 349 224 350 28 0 67 -5 87 -10z m808 -640 c42 -42 11 -113 -50 -113 -36 0 -70 31 -70 65 0 27 45 68 75 68 14 0 34 -9 45 -20z m447 -2 c13 -12 23 -30 23 -40 0 -73 -93 -101 -125 -37 -36 69 45 130 102 77z"/><path d="M3331 3273 c-17 -15 -21 -31 -23 -93 -3 -75 -3 -75 -78 -78 -86 -3 -100 -14 -100 -73 0 -60 23 -78 105 -81 70 -3 70 -3 73 -78 2 -41 8 -80 14 -87 6 -8 33 -13 69 -13 71 0 79 10 79 103 0 65 0 65 76 69 52 2 78 8 84 18 14 23 12 116 -3 128 -7 6 -44 12 -82 14 -70 3 -70 3 -75 81 -4 63 -9 82 -24 93 -27 19 -89 18 -115 -3z m85 -130 c9 -88 9 -88 92 -91 80 -3 82 -3 82 -27 0 -24 -2 -25 -78 -25 -47 0 -83 -5 -90 -12 -7 -7 -12 -43 -12 -90 0 -77 0 -78 -25 -78 -24 0 -25 2 -25 73 0 39 -4 77 -8 84 -5 7 -39 13 -87 15 -79 3 -80 3 -83 31 -3 22 1 27 20 28 13 1 48 2 79 4 31 1 61 5 68 9 7 4 11 38 11 87 0 76 1 79 23 79 23 0 24 -5 33 -87z"/></g></svg>