<?xml version="1.0" encoding="utf-8"?>
<!DOCTYPE svg PUBLIC "-//W3C//DTD SVG 20010904//EN" "http://www.w3.org/TR/2001/REC-SVG-20010904/DTD/svg10.dtd">
<svg version="1.0" xmlns="http://www.w3.org/2000/svg" width="500px" height="500px" viewBox="0 0 500 500" preserveAspectRatio="xMidYMid meet">
 <g fill="none" stroke="#0f0d0d" stroke-width="1">
  <path d="M0 414.5 l0 -85.5 89 -0.2 88.9 -0.3 2.3 -2.3 2.3 -2.3 0 -75 0 -75.1 -2.8 -2.4 -2.8 -2.4 -88.5 0 -88.4 0 0 -84.5 0 -84.5 250 0 250 0 0 127 0 127 -148.5 0 c-173.2 0 -152.5 -1.9 -152.5 13.9 0 8.2 0.3 10.3 1.9 12.2 l1.9 2.4 148.6 0.3 148.6 0.2 0 108.5 0 108.5 -250 0 -250 0 0 -85.5z m260.7 -172.1 c3.3 -2.1 6.3 -7.3 6.3 -10.9 0 -3.7 -3 -8.8 -6.6 -11.2 -5.7 -3.7 -13.5 -1.5 -17.4 5 -2.6 4.2 -2.5 8.6 0.3 12.8 4.3 6.5 11.5 8.3 17.4 4.3z m55.7 2 c0.9 -0.3 1.6 -1.7 1.6 -3 0 -1.8 -0.5 -2.4 -2.3 -2.4 -3.6 0 -4.7 -1.9 -4.7 -8.2 l0 -5.8 3.5 0 c3.2 0 3.5 -0.2 3.5 -3 0 -2.8 -0.3 -3 -3.5 -3 -3.1 0 -3.5 -0.3 -3.5 -2.5 0 -2.2 -0.4 -2.5 -3.5 -2.5 -3.1 0 -3.5 0.3 -3.5 2.5 0 1.4 -0.8 2.9 -2 3.5 -1.1 0.6 -2 2 -2 3 0 1.3 0.7 2 2 2 1.8 0 2 0.7 2 7.5 0 6.7 0.3 7.9 2.5 10 2.4 2.5 6.5 3.2 9.9 1.9z m119.7 -0.3 c0.8 -0.1 2.4 -0.7 3.4 -1.5 1.6 -1.2 1.7 -1.6 0.6 -3 -1 -1.2 -2.3 -1.5 -4.8 -1 -3.4 0.6 -9.3 -1.1 -9.3 -2.7 0 -0.5 3.8 -0.9 8.5 -0.9 l8.5 0 0 -3.7 c0 -6.5 -4.3 -11.8 -10 -12.3 -5.6 -0.5 -7.4 0.2 -11.2 4 -3.9 3.8 -4 4.2 -3.6 9.1 0.8 7.6 7.5 13.4 14.3 12.4 1.1 -0.2 2.7 -0.4 3.6 -0.4z m-212.1 -8.3 l0 -8.3 6 -9 c3.3 -4.9 6 -9.4 6 -9.8 0 -0.5 -1.9 -0.7 -4.2 -0.5 -3.9 0.3 -4.6 0.8 -8 5.6 l-3.7 5.4 -3.7 -5.6 c-3.5 -5.4 -3.9 -5.6 -8 -5.6 -2.4 0 -4.4 0.2 -4.4 0.5 0 0.3 2.7 4.5 6 9.3 l6 8.9 0 8.6 0 8.7 4 0 4 0 0 -8.2z m62 7.2 c1.3 -0.7 2.1 -0.7 2.5 0 0.3 0.5 1.9 1 3.6 1 l2.9 0 0 -12.5 0 -12.5 -3.5 0 -3.5 0 0 8.3 c0 8.5 -0.8 10.7 -4.1 10.7 -3.7 0 -4.9 -2.8 -4.9 -11.1 l0 -7.9 -3.5 0 -3.5 0 0 7.3 c0 9.6 1.4 14.3 4.8 16.2 3.2 1.7 6.6 1.9 9.2 0.5z m44 -6.8 c0 -9 1.6 -11.6 6.6 -11 3.9 0.4 5.4 3.8 5.4 12.1 l0 6.7 3 0 3 0 0 -8.9 c0 -8.1 -0.2 -9.2 -2.6 -12 -3.3 -4 -8.8 -5.6 -12.6 -3.7 l-2.8 1.4 0 -6.9 0 -6.9 -3.5 0 -3.5 0 0 18.5 0 18.5 3.5 0 3.5 0 0 -7.8z m46.8 -10.4 l-0.3 -18.3 -3.2 -0.3 -3.3 -0.3 0 18.5 0 18.6 3.5 0 3.5 0 -0.2 -18.2z m13.2 5.7 l0 -12.5 -3.5 0 -3.5 0 0 12.5 0 12.5 3.5 0 3.5 0 0 -12.5z m16 3 l0 -9.5 3.5 0 c3.2 0 3.5 -0.2 3.5 -3 0 -2.8 -0.3 -3 -3.5 -3 -2.8 0 -3.5 -0.4 -3.5 -1.9 0 -2.8 2.6 -5 5.1 -4.4 1.8 0.5 2 0.2 1.7 -2.3 -0.4 -3.4 -3.3 -4.3 -7.9 -2.3 -3.4 1.4 -5 3.8 -5.1 7.9 -0.1 1.7 -0.9 3.7 -2 4.6 -2.4 2.2 -2.3 4 0.2 4.7 1.8 0.5 2 1.4 2 9.6 l0 9.1 3 0 3 0 0 -9.5z m-17.4 -19.3 c2.9 -1.9 1.9 -7.2 -1.4 -7.2 -3.9 0 -5.7 5 -2.4 6.9 2.1 1.2 2.4 1.3 3.8 0.3z"/>
  <path d="M249.7 236.2 c-3.7 -4 -0.9 -11.2 4.3 -11.2 3.4 0 6 3.1 6 7.1 0 5.2 -6.9 7.9 -10.3 4.1z"/>
  <path d="M426.5 227 c2 -2.2 6.4 -2.7 8.3 -0.8 2.2 2.2 1.2 2.8 -4.5 2.8 -5.5 0 -5.6 0 -3.8 -2z"/>
  <path d="M0 249 l0 -76 88.3 0 c67.3 0 88.6 0.3 89.5 1.2 0.9 0.9 1.2 13.2 1.2 49.2 l0 48 -3.1 -3.2 c-3.9 -4 -8.7 -5.5 -15.9 -5 -4.3 0.3 -6.7 1.1 -9.3 3.1 -2 1.5 -3.9 2.7 -4.2 2.7 -0.3 0 -2.1 -1.1 -3.8 -2.4 -1.8 -1.3 -4.3 -2.7 -5.6 -3.1 -2.4 -0.7 -2.4 -0.8 -0.5 -2.1 4.6 -3.3 12.8 -12.3 15.5 -17.1 6.5 -11.3 10.7 -30.2 9.6 -42.7 -0.5 -5.2 -1 -6.5 -3.6 -8.8 -2.6 -2.3 -4.1 -2.8 -8.2 -2.8 -4.4 0 -5.5 -0.4 -7.9 -3 -3.3 -3.5 -6.7 -3.8 -10.4 -0.9 -4.4 3.4 -3.4 10.2 1.7 12.4 3.7 1.5 8.3 0.3 9.2 -2.6 0.5 -1.6 1.6 -1.9 6 -1.9 8.6 0 10.2 2.9 9.1 16.7 -2 23.9 -11.7 41.4 -27.9 49.8 l-5.7 3 -5.4 -2.8 c-2.9 -1.6 -7.7 -5.2 -10.6 -8 -11.6 -11.7 -17.1 -26.7 -17.3 -47.3 0 -9.5 1.4 -11.4 8.5 -11.4 4.1 0 5.3 0.5 7.2 2.7 2.6 3 7.7 3.4 10.6 0.8 4.7 -4.2 2.6 -11.9 -3.5 -13.1 -3.9 -0.7 -8.5 1.5 -8.5 4.1 0 1.2 -1.4 1.5 -5.9 1.5 -7.6 0 -10.9 2.5 -12.1 9 -0.8 4.4 -0.5 17 0.5 22 1.1 4.9 3.8 13.5 4.7 14.5 0.4 0.5 0.8 1.6 0.8 2.4 0 2.1 5.8 11 10.4 16 2.3 2.4 6.6 5.9 9.6 7.9 3 1.9 5.7 3.6 5.9 3.8 0.2 0.2 -0.8 1.3 -2.2 2.6 -8.2 7.4 -8.8 20 -1.5 30 1.6 2.2 -0.4 4.5 -7.2 8.2 -6.7 3.7 -14.1 4.4 -21.1 2.1 -6.8 -2.3 -14.9 -10.1 -16.7 -16.3 -1.3 -4.4 -2 -56 -0.8 -58 0.3 -0.6 1.9 -1.3 3.5 -1.7 3.3 -0.7 8.5 -5.8 10.1 -10 7 -18 -16.1 -32.9 -29.1 -18.8 -3.9 4.2 -4.9 6.6 -4.9 12.3 0 7.8 4.3 14 11.8 17 l3.2 1.2 0.1 24.7 c0.1 32 0.5 34.4 6.7 42.6 4.6 6.1 8.9 9.1 16.1 11.2 9.8 2.8 21.9 0 29.2 -6.8 1.7 -1.6 3.3 -2.9 3.5 -2.9 0.2 0 2.5 2.1 5 4.8 2.5 2.6 7.4 7.5 10.7 11 l6.1 6.2 -70.7 0 -70.7 0 0 -76z"/>
  <path d="M135.5 314.7 c-15.2 -15.6 -14.1 -13.6 -11.6 -20.2 1.7 -4.4 2.1 -7.9 2.1 -16.5 0 -7.2 0.4 -11.1 1.2 -11.6 1.6 -1 8.6 -0.6 11.1 0.7 1.2 0.6 3.4 2.3 4.9 3.7 2.7 2.5 2.7 2.5 5.4 0.6 7.8 -5.5 7.7 -5.5 14.4 -5.2 6.9 0.4 9.8 1.8 13.5 6.7 2.5 3.3 3.4 15.6 1.3 19.4 -1.3 2.5 -30.6 32.7 -31.7 32.7 -0.3 0 -5.1 -4.6 -10.6 -10.3z m28.5 -16.8 c0.7 -1.1 0.9 -2.7 0.6 -3.5 -1 -2.6 0.5 -4.4 3.8 -4.4 4.5 0 5.8 -1.2 5.4 -5.1 -0.3 -3.2 -0.6 -3.4 -4.3 -3.7 -4.1 -0.4 -5.8 -1.7 -5 -4 0.2 -0.7 0 -2.4 -0.5 -3.8 -0.8 -2.1 -1.5 -2.5 -4.2 -2.2 -3.2 0.3 -3.3 0.5 -3.6 5 l-0.3 4.7 -4.7 0.3 c-4.3 0.3 -4.7 0.5 -5 3.1 -0.5 3.9 1.4 5.7 5.9 5.7 l3.9 0 0 4.4 c0 2.6 0.5 4.6 1.3 4.9 2.8 1.2 5.7 0.6 6.7 -1.4z"/>
  <path d="M158.9 295.3 c-0.4 -8.4 0 -7.8 -5.1 -8.1 -3.4 -0.2 -4.8 -0.7 -4.8 -1.8 0 -1 1.2 -1.4 4.5 -1.4 4.8 0 4.5 0.5 4.9 -7 0.1 -1.5 0.7 -2.5 1.6 -2.5 1.1 0 1.6 1.3 1.8 4.8 l0.3 4.7 4.5 0 c3.2 0 4.4 0.4 4.4 1.5 0 1.1 -1.2 1.5 -4.4 1.5 l-4.5 0 -0.3 4.7 c-0.3 4.4 -2.7 7.5 -2.9 3.6z"/>
  <path d="M155.8 320.3 c2.2 -2.7 8.4 -9.1 13.6 -14.3 l9.6 -9.5 0 12.7 c0 10.2 -0.3 13 -1.6 14.2 -1.2 1.3 -4 1.6 -13.6 1.6 l-12 0 4 -4.7z"/>
  <path d="M115.4 293.4 c-1 -1.4 -2 -5.2 -2.2 -8.4 -0.5 -6.5 2 -12.6 6.2 -15.4 l2.6 -1.6 -0.1 10.2 c-0.1 14.8 -2.8 21 -6.5 15.2z"/>
  <path d="M204.2 277.8 c-0.7 -0.7 -1.2 -4.4 -1.2 -9.8 0 -5.4 0.5 -9.1 1.2 -9.8 0.9 -0.9 35.3 -1.2 148.5 -1.2 l147.3 0 0 11 0 11 -147.3 0 c-113.2 0 -147.6 -0.3 -148.5 -1.2z m13.8 -5.8 c0 -2.8 0.3 -3 3.5 -3 3.2 0 3.5 0.2 3.5 3 0 1.7 0.5 3 1 3 0.6 0 1 -2.8 1 -6.5 0 -3.7 -0.4 -6.5 -1 -6.5 -0.5 0 -1 1.1 -1 2.5 0 2.2 -0.4 2.5 -3.5 2.5 -3.1 0 -3.5 -0.3 -3.5 -2.5 0 -1.4 -0.4 -2.5 -1 -2.5 -0.6 0 -1 2.8 -1 6.5 0 3.7 0.4 6.5 1 6.5 0.6 0 1 -1.3 1 -3z m26 2 c0 -0.5 -1.3 -1 -3 -1 -2.3 0 -3 -0.4 -3 -2 0 -1.6 0.7 -2 3 -2 1.7 0 3 -0.4 3 -1 0 -0.5 -1.4 -1 -3.1 -1 -4.1 0 -3.6 -3.2 0.6 -4.1 2.7 -0.6 2.6 -0.7 -1.2 -0.8 l-4.3 -0.1 0 6.5 0 6.5 4 0 c2.2 0 4 -0.4 4 -1z m11.5 -1 c0.4 -1.4 1.5 -2 3.5 -2 2 0 3.1 0.6 3.5 2 0.3 1.1 1.1 2 1.6 2 1.1 0 0.6 -2.3 -2.2 -8.7 -1 -2.4 -2.3 -4.3 -2.9 -4.3 -1 0 -6 10.2 -6 12.1 0 1.7 1.9 0.9 2.5 -1.1z m26.5 1 c0 -0.5 -1.3 -1 -3 -1 -3 0 -3 -0.1 -3 -5.5 0 -3 -0.4 -5.5 -1 -5.5 -0.6 0 -1 2.8 -1 6.5 l0 6.5 4 0 c2.2 0 4 -0.4 4 -1z m13 -4.9 c0 -4.8 0.3 -6 1.8 -6.4 0.9 -0.3 -0.5 -0.5 -3.3 -0.5 -3.9 -0.1 -4.5 0.1 -2.7 0.8 1.9 0.8 2.2 1.7 2.2 6.5 0 3 0.5 5.5 1 5.5 0.6 0 1 -2.6 1 -5.9z m14 2.9 c0 -2.8 0.3 -3 3.5 -3 3.2 0 3.5 0.2 3.5 3 0 1.7 0.5 3 1 3 0.6 0 1 -2.8 1 -6.5 0 -3.7 -0.4 -6.5 -1 -6.5 -0.5 0 -1 1.1 -1 2.5 0 2.2 -0.4 2.5 -3.5 2.5 -2.8 0 -3.5 -0.4 -3.5 -1.9 0 -1.1 -0.4 -2.3 -1 -2.6 -0.6 -0.4 -1 1.8 -1 5.9 0 3.7 0.4 6.6 1 6.6 0.6 0 1 -1.3 1 -3z m27.9 1.6 c1 -1.2 0.6 -1.3 -2.7 -0.9 -3.5 0.5 -4.1 0.3 -4.8 -1.8 -1.6 -4.8 1 -8.3 5.4 -7.2 1.7 0.4 2.3 0.2 1.8 -0.6 -1.1 -1.6 -5.7 -1.3 -7.8 0.6 -2.2 2 -2.3 7 -0.1 9.5 1.9 2.1 6.6 2.4 8.2 0.4z m11.6 -0.6 c0.4 -1.4 1.5 -2 3.5 -2 1.9 0 3.3 0.7 4 2 0.6 1.1 1.5 2 1.9 2 0.5 0 -0.3 -2.9 -1.8 -6.5 -1.6 -4 -3.1 -6.4 -3.9 -6.3 -1.1 0.2 -6.2 10.6 -6.2 12.5 0 1.2 2 -0.1 2.5 -1.7z m20.5 -1 c0 -3.8 0.9 -3.8 4.2 0.2 3.1 3.9 4.8 3.3 1.7 -0.6 -1.8 -2.3 -1.8 -2.7 -0.5 -3.2 1.9 -0.7 2.1 -3.5 0.4 -5.2 -0.7 -0.7 -2.7 -1.2 -4.5 -1.2 l-3.3 0 0 6.5 c0 3.7 0.4 6.5 1 6.5 0.6 0 1 -1.3 1 -3z m25 2 c0 -0.5 -1.3 -1 -3 -1 -2.3 0 -3 -0.4 -3 -2 0 -1.5 0.7 -2 2.5 -2 1.4 0 2.5 -0.4 2.5 -1 0 -0.5 -1.1 -1 -2.5 -1 -1.8 0 -2.5 -0.5 -2.5 -1.9 0 -1.5 0.8 -2.1 3.3 -2.4 2.8 -0.3 2.6 -0.4 -1 -0.5 l-4.3 -0.2 0 6.5 0 6.5 4 0 c2.2 0 4 -0.4 4 -1z"/>
  <path d="M257.7 267 c0.3 -1.1 0.9 -2 1.3 -2 0.4 0 1 0.9 1.3 2 0.4 1.5 0 2 -1.3 2 -1.3 0 -1.7 -0.5 -1.3 -2z"/>
  <path d="M351 267.6 c0 -2.2 1.7 -2.8 2.4 -1 0.9 2.2 0.8 2.4 -0.9 2.4 -0.8 0 -1.5 -0.6 -1.5 -1.4z"/>
  <path d="M370.3 267.3 c-2.3 -0.8 -1.4 -3.3 1.2 -3.3 1.5 0 2.5 0.6 2.5 1.4 0 1.6 -1.9 2.5 -3.7 1.9z"/>
  <path d="M59.9 227.9 c-4.6 -2.7 -6.9 -6.6 -6.9 -11.9 0 -7.4 6.2 -14 13.1 -14 3.7 0 10.3 3.7 12.2 6.9 3.9 6.7 1 16.2 -6 19.5 -4.5 2.1 -8.1 2 -12.4 -0.5z"/>
  <path d="M108.6 193.4 c-0.8 -2.1 -0.8 -2 1 -3.8 1.9 -2 2.9 -2 4.8 0 1.2 1.2 1.3 2 0.6 3.5 -1.3 2.3 -5.5 2.5 -6.4 0.3z"/>
  <path d="M133.4 193.5 c-1.4 -3.7 2.6 -6.9 5.3 -4.2 2.2 2.2 0.8 5.7 -2.3 5.7 -1.4 0 -2.7 -0.7 -3 -1.5z"/>
 </g>
 <g fill="none" stroke="#fdfcfe" stroke-width="1">
  <path d="M0 327 c0 -2 0.6 -2 70.4 -2.2 l70.5 -0.3 -10.5 -10.7 c-5.7 -6 -10.6 -10.8 -10.8 -10.8 -0.2 0 -1.8 1.3 -3.5 2.9 -7.3 6.8 -19.4 9.6 -29.2 6.8 -7.2 -2.1 -11.5 -5.1 -16.1 -11.2 -6.2 -8.2 -6.6 -10.6 -6.7 -42.6 l-0.1 -24.7 -3.2 -1.2 c-7.5 -3 -11.8 -9.2 -11.8 -17 0 -5.7 1 -8.1 4.9 -12.3 8.5 -9.2 23 -6.6 29 5.1 1.5 2.9 1.6 9.9 0.1 13.7 -1.6 4.2 -6.8 9.3 -10.1 10 -1.6 0.4 -3.2 1.1 -3.5 1.7 -1.2 2 -0.5 53.6 0.8 58 1.8 6.2 9.9 14 16.7 16.3 7 2.3 14.4 1.6 21.1 -2.1 6.8 -3.7 8.8 -6 7.2 -8.2 -7.3 -10 -6.7 -22.6 1.5 -30 1.4 -1.3 2.4 -2.4 2.2 -2.6 -0.2 -0.2 -2.9 -1.9 -5.9 -3.8 -3 -2 -7.3 -5.5 -9.6 -7.9 -4.6 -5 -10.4 -13.9 -10.4 -16 0 -0.8 -0.4 -1.9 -0.8 -2.4 -0.9 -1 -3.6 -9.6 -4.7 -14.5 -1 -5 -1.3 -17.6 -0.5 -22 1.2 -6.5 4.5 -9 12.1 -9 4.5 0 5.9 -0.3 5.9 -1.5 0 -2.6 4.6 -4.8 8.5 -4.1 6.1 1.2 8.2 8.9 3.5 13.1 -2.9 2.6 -8 2.2 -10.6 -0.8 -1.9 -2.2 -3.1 -2.7 -7.2 -2.7 -7.1 0 -8.5 1.9 -8.5 11.4 0.2 20.6 5.7 35.6 17.3 47.3 2.9 2.8 7.7 6.4 10.6 8 l5.4 2.8 5.7 -3 c16.2 -8.4 25.9 -25.9 27.9 -49.8 1.1 -13.8 -0.5 -16.7 -9.1 -16.7 -4.4 0 -5.5 0.3 -6 1.9 -0.9 2.9 -5.5 4.1 -9.2 2.6 -5.1 -2.2 -6.1 -9 -1.7 -12.4 3.7 -2.9 7.1 -2.6 10.4 0.9 2.4 2.6 3.5 3 7.9 3 4.1 0 5.6 0.5 8.2 2.8 2.6 2.3 3.1 3.6 3.6 8.8 1.1 12.5 -3.1 31.4 -9.6 42.7 -2.7 4.8 -10.9 13.8 -15.5 17.1 -1.9 1.3 -1.9 1.4 0.5 2.1 1.3 0.4 3.8 1.8 5.6 3.1 1.7 1.3 3.5 2.4 3.8 2.4 0.3 0 2.2 -1.2 4.2 -2.7 2.6 -2 5 -2.8 9.3 -3.1 7.2 -0.5 12 1 15.9 5 l3.1 3.2 0 -48 c0 -36 -0.3 -48.3 -1.2 -49.2 -0.9 -0.9 -22.2 -1.2 -89.5 -1.2 -87.6 0 -88.3 0 -88.3 -2 0 -2 0.7 -2 88.4 -2 l88.5 0 2.8 2.4 2.8 2.4 0 75.1 0 75 -2.3 2.3 -2.3 2.3 -88.9 0.3 c-88.6 0.2 -89 0.2 -89 -1.8z m161.6 -17 c8.2 -8.3 15.5 -16.2 16.2 -17.7 2.1 -3.8 1.2 -16.1 -1.3 -19.4 -3.7 -4.9 -6.6 -6.3 -13.5 -6.7 -6.7 -0.3 -6.6 -0.3 -14.4 5.2 -2.7 1.9 -2.7 1.9 -5.4 -0.6 -1.5 -1.4 -3.7 -3.1 -4.9 -3.7 -2.5 -1.3 -9.5 -1.7 -11.1 -0.7 -0.8 0.5 -1.2 4.4 -1.2 11.6 0 8.6 -0.4 12.1 -2.1 16.5 -2 5.5 -2 5.7 -0.2 7.8 3.5 4.1 21.9 22.7 22.4 22.7 0.3 0 7.3 -6.8 15.5 -15z m15.8 13.4 c1.3 -1.2 1.6 -4 1.6 -14.2 l0 -12.7 -9.6 9.5 c-5.2 5.2 -11.4 11.6 -13.6 14.3 l-4 4.7 12 0 c9.6 0 12.4 -0.3 13.6 -1.6z m-56.8 -31.5 c0.7 -1.9 1.3 -8 1.3 -13.7 l0.1 -10.2 -2.6 1.6 c-4.2 2.8 -6.7 8.9 -6.2 15.4 0.4 5.9 3 11.4 5 10.8 0.7 -0.3 1.7 -2 2.4 -3.9z m-48.3 -63.5 c7 -3.3 9.9 -12.8 6 -19.5 -1.9 -3.2 -8.5 -6.9 -12.2 -6.9 -6.9 0 -13.1 6.6 -13.1 14 0 5.3 2.3 9.2 6.9 11.9 4.3 2.5 7.9 2.6 12.4 0.5z m42.7 -35.3 c0.7 -1.5 0.6 -2.3 -0.6 -3.5 -1.9 -2 -2.9 -2 -4.8 0 -1.8 1.8 -1.8 1.7 -1 3.8 0.9 2.2 5.1 2 6.4 -0.3z m24.5 -0.2 c1.4 -4.2 -4.5 -6.6 -6.1 -2.4 -1 2.5 0.4 4.5 3 4.5 1.6 0 2.7 -0.7 3.1 -2.1z"/>
  <path d="M157.3 299.3 c-0.8 -0.3 -1.3 -2.3 -1.3 -4.9 l0 -4.4 -3.9 0 c-4.5 0 -6.4 -1.8 -5.9 -5.7 0.3 -2.6 0.7 -2.8 5 -3.1 l4.7 -0.3 0.3 -4.7 c0.3 -4.5 0.4 -4.7 3.6 -5 2.7 -0.3 3.4 0.1 4.2 2.2 0.5 1.4 0.7 3.1 0.5 3.8 -0.8 2.3 0.9 3.6 5 4 3.7 0.3 4 0.5 4.3 3.7 0.4 3.9 -0.9 5.1 -5.4 5.1 -3.3 0 -4.8 1.8 -3.8 4.4 1.4 3.7 -3 6.7 -7.3 4.9z m4.5 -7.6 l0.3 -4.7 4.5 0 c3.2 0 4.4 -0.4 4.4 -1.5 0 -1.1 -1.2 -1.5 -4.4 -1.5 l-4.5 0 -0.3 -4.7 c-0.2 -3.5 -0.7 -4.8 -1.8 -4.8 -0.9 0 -1.5 1 -1.6 2.5 -0.4 7.5 -0.1 7 -4.9 7 -3.3 0 -4.5 0.4 -4.5 1.4 0 1.1 1.4 1.6 4.8 1.8 5.1 0.3 4.7 -0.3 5.1 8.1 0.2 3.9 2.6 0.8 2.9 -3.6z"/>
  <path d="M203.3 282 c-3.5 -1.4 -4.3 -4.2 -4.3 -14.4 0 -15.4 -20.5 -13.6 152.5 -13.6 131.3 0 148.5 0.2 148.5 1.5 0 1.3 -17 1.5 -147.3 1.5 -113.2 0 -147.6 0.3 -148.5 1.2 -0.7 0.7 -1.2 4.4 -1.2 9.8 0 5.4 0.5 9.1 1.2 9.8 0.9 0.9 35.3 1.2 148.5 1.2 146.6 0 147.3 0 147.3 2 0 2 -0.6 2 -147.2 1.9 -82.4 0 -148.3 -0.4 -149.5 -0.9z"/>
  <path d="M216 268.5 c0 -3.7 0.4 -6.5 1 -6.5 0.6 0 1 1.1 1 2.5 0 2.2 0.4 2.5 3.5 2.5 3.1 0 3.5 -0.3 3.5 -2.5 0 -1.4 0.5 -2.5 1 -2.5 0.6 0 1 2.8 1 6.5 0 3.7 -0.4 6.5 -1 6.5 -0.5 0 -1 -1.3 -1 -3 0 -2.8 -0.3 -3 -3.5 -3 -3.2 0 -3.5 0.2 -3.5 3 0 1.7 -0.4 3 -1 3 -0.6 0 -1 -2.8 -1 -6.5z"/>
  <path d="M236 268.5 l0 -6.5 4.3 0.1 c3.8 0.1 3.9 0.2 1.2 0.8 -4.2 0.9 -4.7 4.1 -0.6 4.1 1.7 0 3.1 0.5 3.1 1 0 0.6 -1.3 1 -3 1 -2.3 0 -3 0.4 -3 2 0 1.6 0.7 2 3 2 1.7 0 3 0.5 3 1 0 0.6 -1.8 1 -4 1 l-4 0 0 -6.5z"/>
  <path d="M253 274.1 c0 -1.9 5 -12.1 6 -12.1 0.6 0 1.9 1.9 2.9 4.3 2.8 6.4 3.3 8.7 2.2 8.7 -0.5 0 -1.3 -0.9 -1.6 -2 -0.4 -1.4 -1.5 -2 -3.5 -2 -2 0 -3.1 0.6 -3.5 2 -0.6 2 -2.5 2.8 -2.5 1.1z m7.3 -7.1 c-0.3 -1.1 -0.9 -2 -1.3 -2 -0.4 0 -1 0.9 -1.3 2 -0.4 1.5 0 2 1.3 2 1.3 0 1.7 -0.5 1.3 -2z"/>
  <path d="M274 268.5 c0 -3.7 0.4 -6.5 1 -6.5 0.6 0 1 2.5 1 5.5 0 5.4 0 5.5 3 5.5 1.7 0 3 0.5 3 1 0 0.6 -1.8 1 -4 1 l-4 0 0 -6.5z"/>
  <path d="M293 269.5 c0 -4.8 -0.3 -5.7 -2.2 -6.5 -1.8 -0.7 -1.2 -0.9 2.7 -0.8 2.8 0 4.2 0.2 3.3 0.5 -1.5 0.4 -1.8 1.6 -1.8 6.4 0 3.3 -0.4 5.9 -1 5.9 -0.5 0 -1 -2.5 -1 -5.5z"/>
  <path d="M307 268.4 c0 -4.1 0.4 -6.3 1 -5.9 0.6 0.3 1 1.5 1 2.6 0 1.5 0.7 1.9 3.5 1.9 3.1 0 3.5 -0.3 3.5 -2.5 0 -1.4 0.5 -2.5 1 -2.5 0.6 0 1 2.8 1 6.5 0 3.7 -0.4 6.5 -1 6.5 -0.5 0 -1 -1.3 -1 -3 0 -2.8 -0.3 -3 -3.5 -3 -3.2 0 -3.5 0.2 -3.5 3 0 1.7 -0.4 3 -1 3 -0.6 0 -1 -2.9 -1 -6.6z"/>
  <path d="M328.7 273.2 c-2.2 -2.5 -2.1 -7.5 0.1 -9.5 2.1 -1.9 6.7 -2.2 7.8 -0.6 0.5 0.8 -0.1 1 -1.8 0.6 -4.4 -1.1 -7 2.4 -5.4 7.2 0.7 2.1 1.3 2.3 4.8 1.8 3.3 -0.4 3.7 -0.3 2.7 0.9 -1.6 2 -6.3 1.7 -8.2 -0.4z"/>
  <path d="M346 274.7 c0 -1.9 5.1 -12.3 6.2 -12.5 0.8 -0.1 2.3 2.3 3.9 6.3 1.5 3.6 2.3 6.5 1.8 6.5 -0.4 0 -1.3 -0.9 -1.9 -2 -0.7 -1.3 -2.1 -2 -4 -2 -2 0 -3.1 0.6 -3.5 2 -0.5 1.6 -2.5 2.9 -2.5 1.7z m8 -6.1 c0 -1.5 -1.4 -3.5 -2.1 -3 -1.5 0.9 -1 3.4 0.6 3.4 0.8 0 1.5 -0.2 1.5 -0.4z"/>
  <path d="M367 268.5 l0 -6.5 3.3 0 c1.8 0 3.8 0.5 4.5 1.2 1.7 1.7 1.5 4.5 -0.4 5.2 -1.3 0.5 -1.3 0.9 0.5 3.2 3.1 3.9 1.4 4.5 -1.7 0.6 -3.3 -4 -4.2 -4 -4.2 -0.2 0 1.7 -0.4 3 -1 3 -0.6 0 -1 -2.8 -1 -6.5z m7 -3.1 c0 -0.8 -1 -1.4 -2.5 -1.4 -2.6 0 -3.5 2.5 -1.2 3.3 1.8 0.6 3.7 -0.3 3.7 -1.9z"/>
  <path d="M386 268.5 l0 -6.5 4.3 0.2 c3.6 0.1 3.8 0.2 1 0.5 -2.5 0.3 -3.3 0.9 -3.3 2.4 0 1.4 0.7 1.9 2.5 1.9 1.4 0 2.5 0.5 2.5 1 0 0.6 -1.1 1 -2.5 1 -1.8 0 -2.5 0.5 -2.5 2 0 1.6 0.7 2 3 2 1.7 0 3 0.5 3 1 0 0.6 -1.8 1 -4 1 l-4 0 0 -6.5z"/>
  <path d="M249 243.3 c-4.3 -2.2 -8 -7.6 -8 -11.7 0 -3.8 3 -8.9 6.6 -11.3 5.7 -3.7 13.5 -1.5 17.4 5 6.3 10.3 -5.4 23.4 -16 18z m9.2 -7 c3.9 -3.5 1 -11.3 -4.2 -11.3 -5.2 0 -8 7.2 -4.3 11.2 2 2.2 6.1 2.3 8.5 0.1z"/>
  <path d="M306.5 242.5 c-2.2 -2.1 -2.5 -3.3 -2.5 -10 0 -6.8 -0.2 -7.5 -2 -7.5 -1.3 0 -2 -0.7 -2 -2 0 -1 0.9 -2.4 2 -3 1.2 -0.6 2 -2.1 2 -3.5 0 -2.2 0.4 -2.5 3.5 -2.5 3.1 0 3.5 0.3 3.5 2.5 0 2.2 0.4 2.5 3.5 2.5 3.2 0 3.5 0.2 3.5 3 0 2.8 -0.3 3 -3.5 3 l-3.5 0 0 5.8 c0 6.3 1.1 8.2 4.7 8.2 1.8 0 2.3 0.6 2.3 2.4 0 4.3 -7.6 5.1 -11.5 1.1z"/>
  <path d="M427.5 243.9 c-5.1 -1.4 -8.7 -6.1 -9.3 -11.8 -0.4 -4.9 -0.3 -5.3 3.6 -9.1 3.8 -3.8 5.6 -4.5 11.2 -4 5.7 0.5 10 5.8 10 12.3 l0 3.7 -8.5 0 c-4.7 0 -8.5 0.4 -8.5 0.9 0 1.6 5.9 3.3 9.3 2.7 2.5 -0.5 3.8 -0.2 4.8 1 1.1 1.4 1 1.8 -0.6 3 -1 0.8 -2.6 1.4 -3.4 1.5 -0.9 0 -2.5 0.2 -3.6 0.4 -1.1 0.1 -3.4 -0.1 -5 -0.6z m8.5 -15.7 c0 -3.4 -6.7 -4.3 -9.5 -1.2 -1.8 2 -1.7 2 3.8 2 3.2 0 5.7 -0.4 5.7 -0.8z"/>
  <path d="M216 235.3 l0 -8.6 -6 -8.9 c-3.3 -4.8 -6 -9 -6 -9.3 0 -0.3 2 -0.5 4.4 -0.5 4.1 0 4.5 0.2 8 5.6 l3.7 5.6 3.7 -5.4 c3.4 -4.8 4.1 -5.3 8 -5.6 2.3 -0.2 4.2 0 4.2 0.5 0 0.4 -2.7 4.9 -6 9.8 l-6 9 0 8.3 0 8.2 -4 0 -4 0 0 -8.7z"/>
  <path d="M276.8 242.5 c-3.4 -1.9 -4.8 -6.6 -4.8 -16.2 l0 -7.3 3.5 0 3.5 0 0 7.9 c0 8.3 1.2 11.1 4.9 11.1 3.3 0 4.1 -2.2 4.1 -10.7 l0 -8.3 3.5 0 3.5 0 0 12.5 0 12.5 -2.9 0 c-1.7 0 -3.3 -0.5 -3.6 -1 -0.4 -0.7 -1.2 -0.7 -2.5 0 -2.6 1.4 -6 1.2 -9.2 -0.5z"/>
  <path d="M323 225.5 l0 -18.5 3.5 0 3.5 0 0 6.9 0 6.9 2.8 -1.4 c3.8 -1.9 9.3 -0.3 12.6 3.7 2.4 2.8 2.6 3.9 2.6 12 l0 8.9 -3 0 -3 0 0 -6.7 c0 -8.3 -1.5 -11.7 -5.4 -12.1 -5 -0.6 -6.6 2 -6.6 11 l0 7.8 -3.5 0 -3.5 0 0 -18.5z"/>
  <path d="M370 225.4 l0 -18.5 3.3 0.3 3.2 0.3 0.3 18.3 0.2 18.2 -3.5 0 -3.5 0 0 -18.6z"/>
  <path d="M383 231.5 l0 -12.5 3.5 0 3.5 0 0 12.5 0 12.5 -3.5 0 -3.5 0 0 -12.5z"/>
  <path d="M400 234.9 c0 -8.2 -0.2 -9.1 -2 -9.6 -2.5 -0.7 -2.6 -2.5 -0.2 -4.7 1.1 -0.9 1.9 -2.9 2 -4.6 0.1 -4.1 1.7 -6.5 5.1 -7.9 4.6 -2 7.5 -1.1 7.9 2.3 0.3 2.5 0.1 2.8 -1.7 2.3 -2.5 -0.6 -5.1 1.6 -5.1 4.4 0 1.5 0.7 1.9 3.5 1.9 3.2 0 3.5 0.2 3.5 3 0 2.8 -0.3 3 -3.5 3 l-3.5 0 0 9.5 0 9.5 -3 0 -3 0 0 -9.1z"/>
  <path d="M384.8 214.9 c-3.3 -1.9 -1.5 -6.9 2.4 -6.9 3.3 0 4.3 5.3 1.4 7.2 -1.4 1 -1.7 0.9 -3.8 -0.3z"/>
 </g>
 <g fill="none" stroke="#000000" stroke-width="1">
 </g>
</svg>